<?xml version="1.0" encoding="UTF-8"?>
<svg width="18px" height="17px" viewBox="0 0 18 17" version="1.1" xmlns="http://www.w3.org/2000/svg" xmlns:xlink="http://www.w3.org/1999/xlink">
    <title>download</title>
    <g id="screens" stroke="none" stroke-width="1" fill="none" fill-rule="evenodd">
        <g id="workinpath-5" transform="translate(-672.000000, -539.000000)" fill="#B7BBC5" fill-rule="nonzero">
            <g id="Group-20" transform="translate(462.000000, 454.000000)">
                <g id="download" transform="translate(210.000000, 85.000000)">
                    <path d="M13.3400663,5.54610301 L10.6720662,5.54610301 L10.6720662,0.210101765 L7.11473188,0.210101765 L7.11473188,5.54610301 L4.44673174,5.54610301 L8.89339784,9.99277151 L13.3400663,5.54610301 Z M17.1980027,11.3552233 C17.0112434,11.1560087 15.7652896,9.82289452 15.409556,9.47516985 C15.1738831,9.2448291 14.8368227,9.10342057 14.4828776,9.10342057 L12.9203253,9.10342057 L15.645248,11.7660886 L12.4934468,11.7660886 C12.4027404,11.7660886 12.3209121,11.8123277 12.2800052,11.8843775 L11.5543132,13.5501082 L6.23253756,13.5501082 L5.50684557,11.8843775 C5.46593861,11.8123444 5.38322444,11.7660886 5.29340393,11.7660886 L2.14160297,11.7660886 L4.86563954,9.10342057 L3.30397317,9.10342057 C2.95091396,9.10342057 2.61385358,9.2448291 2.37729383,9.47516985 C2.0215604,9.82378042 0.775607606,11.156897 0.588847548,11.3552257 C0.153959938,11.8185649 -0.0852742727,12.1876373 0.028567374,12.6438725 L0.527479934,15.3776878 C0.6413217,15.8348089 1.14200606,16.2101018 1.64091862,16.2101018 L16.14772,16.2101018 C16.646634,16.2101018 17.1473341,15.8348089 17.2611601,15.3776878 L17.7600717,12.6438725 C17.8721259,12.1876373 17.6337953,11.8185649 17.1980219,11.3552257 L17.1980027,11.3552233 Z" id="Shape"></path>
                </g>
            </g>
        </g>
    </g>
</svg>