<?xml version="1.0" encoding="UTF-8"?>
<svg width="40px" height="36px" viewBox="0 0 40 36" version="1.1" xmlns="http://www.w3.org/2000/svg" xmlns:xlink="http://www.w3.org/1999/xlink">
    <title>Group 21</title>
    <g id="screens" stroke="none" stroke-width="1" fill="none" fill-rule="evenodd">
        <g id="workinpath-5" transform="translate(-477.000000, -529.000000)" fill="#4C52BC">
            <g id="Group-20" transform="translate(462.000000, 454.000000)">
                <g id="Group-21" transform="translate(15.000000, 75.000000)">
                    <rect id="Rectangle" opacity="0.200000003" x="0" y="0" width="40" height="36" rx="5"></rect>
                    <g id="file" transform="translate(14.000000, 10.000000)" fill-rule="nonzero">
                        <path d="M1.47589558,-7.14105263e-07 C0.74128,-7.14105263e-07 0.146247074,0.595002442 0.146247074,1.329648 L0.146247074,14.6260345 C0.146247074,15.3606484 0.741249684,15.9556817 1.47589558,15.9556817 L11.4481768,15.9556817 C12.1827924,15.9556817 12.777824,15.3606787 12.777824,14.6260345 L12.777824,4.62713768 C12.777824,4.18171958 12.6019705,3.78613221 12.3190989,3.50026947 L9.30080168,0.488641179 C9.00197558,0.186138105 8.58279747,-7.14105263e-07 8.12407242,-7.14105263e-07 L1.47589389,-7.14105263e-07 L1.47589558,-7.14105263e-07 Z M6.12961684,2.32687663 C6.12961684,1.96123621 6.42878484,1.66206771 6.79442526,1.66206771 C7.16006568,1.66206771 7.45923368,1.96123621 7.45923368,2.32687663 L7.45923368,4.81994611 C7.45923368,5.09583663 7.68195874,5.31856 7.95784758,5.31856 L10.4509491,5.31856 C10.8165895,5.31856 11.1157575,5.61772968 11.1157575,5.98336842 C11.1157575,6.34900716 10.8165895,6.64817853 10.4509491,6.64817853 L7.459264,6.64817853 C6.72465011,6.64817853 6.12961684,6.05317558 6.12961684,5.31852968 L6.12961684,2.32687663 Z" id="Shape"></path>
                    </g>
                </g>
            </g>
        </g>
    </g>
</svg>