<?xml version="1.0" encoding="UTF-8"?>
<svg width="15px" height="15px" viewBox="0 0 15 15" version="1.1" xmlns="http://www.w3.org/2000/svg" xmlns:xlink="http://www.w3.org/1999/xlink">
    <title>Fill 1</title>
    <g id="screens" stroke="none" stroke-width="1" fill="none" fill-rule="evenodd">
        <g id="workinpath-1_slider-over" transform="translate(-1185.000000, -88.000000)" fill="#969AB8">
            <g id="Group-9" transform="translate(157.000000, 55.000000)">
                <g id="add" transform="translate(1065.500000, 40.000000) rotate(-90.000000) translate(-1065.500000, -40.000000) translate(1045.500000, 2.500000)">
                    <path d="M17.5266949,1.57918418 L13.5793345,1.57918418 L13.5793345,5.52654463 L12.0003005,5.52654463 L12.0003005,3.63797881e-12 L17.5268449,3.63797881e-12 L17.5266949,1.57918418 Z M21.4734554,1.57918418 L21.4734554,0.000149998501 L27,0.000149998501 L27,5.52669463 L25.4209658,5.52669463 L25.4209658,1.57933418 L21.4734554,1.57918418 Z M17.5266949,13.4208155 L17.5266949,14.9998498 L12.0001503,14.9998498 L12.0001503,9.47330509 L13.5791845,9.47330509 L13.5791845,13.4206655 L17.5266949,13.4208155 Z M21.4734554,13.4208155 L25.4208158,13.4208155 L25.4208158,9.47345508 L26.99985,9.47345508 L26.99985,15 L21.4733054,15 L21.4734554,13.4208155 Z" id="Fill-1"></path>
                </g>
            </g>
        </g>
    </g>
</svg>