<?xml version="1.0" encoding="UTF-8"?>
<svg width="17px" height="20px" viewBox="0 0 17 20" version="1.1" xmlns="http://www.w3.org/2000/svg" xmlns:xlink="http://www.w3.org/1999/xlink">
    <title>Group 22</title>
    <g id="screens" stroke="none" stroke-width="1" fill="none" fill-rule="evenodd">
        <g id="workinpath-1_slider-over" transform="translate(-182.000000, -82.000000)" fill="#969AB8" fill-rule="nonzero">
            <g id="Group-9" transform="translate(157.000000, 55.000000)">
                <g id="book" transform="translate(25.000000, 27.000000)">
                    <path d="M15.5072391,0.0362178261 L3.27897826,0.0362178261 C1.55795652,0.0362178261 0.108695652,1.48552174 0.108695652,3.20652174 L0.108695652,16.7934783 C0.108695652,18.5145 1.55797826,19.9637609 3.27897826,19.9637609 L15.5072391,19.9637609 C16.0507174,19.9637609 16.4130435,19.6014348 16.4130435,19.0579565 L16.4130435,0.942022174 C16.4130435,0.398543913 16.0507174,0.0362178261 15.5072391,0.0362178261 L15.5072391,0.0362178261 Z M3.27897826,1.84782609 L14.6014348,1.84782609 L14.6014348,13.6231957 L3.27897826,13.6231957 C2.82608696,13.6231957 2.37317391,13.7137826 1.92028261,13.9855217 L1.92028261,3.20654348 C1.92028261,2.48191304 2.55434783,1.84782609 3.27897826,1.84782609 L3.27897826,1.84782609 Z M3.27897826,18.1521739 C2.55434783,18.1521739 1.92028261,17.5181087 1.92028261,16.7934783 C1.92028261,16.0688478 2.55434783,15.4347826 3.27897826,15.4347826 L14.6014348,15.4347826 L14.6014348,18.1521739 L3.27897826,18.1521739 Z" id="Shape"></path>
                </g>
            </g>
        </g>
    </g>
</svg>