<?xml version="1.0" encoding="UTF-8"?>
<svg width="150px" height="155px" viewBox="0 0 150 155" version="1.1" xmlns="http://www.w3.org/2000/svg" xmlns:xlink="http://www.w3.org/1999/xlink">
    <title>Group 20</title>
    <defs>
        <circle id="path-1" cx="75" cy="75" r="75"></circle>
        <path d="M76.3840695,26.6374804 C74.9291364,26.6374804 73.4742033,26.8781107 72.0192702,27.6045462 C72.5057649,26.6374804 72.7467367,25.4252399 72.7467367,24.2129644 C72.7467367,18.8873211 68.3819374,14.5287085 63.0487346,14.5287085 C60.866335,14.5287085 59.1704649,15.2551439 57.4699391,16.2221748 C55.0466025,6.77851424 46.5579408,5.45696756e-14 36.3734091,5.45696756e-14 C24.2474146,5.45696756e-14 14.5494125,9.68425594 14.5494125,21.7930628 C14.5494125,22.7601285 14.5494125,23.7317736 14.7903844,24.458209 C13.821946,24.2175788 13.0945143,24.2175788 12.1259945,24.2175788 C5.33785857,24.2175788 -4.27462459e-13,29.5432221 -4.27462459e-13,36.3263856 C-4.27462459e-13,43.1048998 5.33320279,48.4351924 12.1259945,48.4351924 L76.383988,48.4351924 C82.4446573,48.4351924 87.2959863,43.5907398 87.2959863,37.538661 C87.2959863,31.4820492 82.4446573,26.6375967 76.383988,26.6375967 L76.3840695,26.6374804 Z" id="path-3"></path>
        <path d="M76.3840695,26.6374804 C74.9291364,26.6374804 73.4742033,26.8781107 72.0192702,27.6045462 C72.5057649,26.6374804 72.7467367,25.4252399 72.7467367,24.2129644 C72.7467367,18.8873211 68.3819374,14.5287085 63.0487346,14.5287085 C60.866335,14.5287085 59.1704649,15.2551439 57.4699391,16.2221748 C55.0466025,6.77851424 46.5579408,5.45696756e-14 36.3734091,5.45696756e-14 C24.2474146,5.45696756e-14 14.5494125,9.68425594 14.5494125,21.7930628 C14.5494125,22.7601285 14.5494125,23.7317736 14.7903844,24.458209 C13.821946,24.2175788 13.0945143,24.2175788 12.1259945,24.2175788 C5.33785857,24.2175788 -4.27462459e-13,29.5432221 -4.27462459e-13,36.3263856 C-4.27462459e-13,43.1048998 5.33320279,48.4351924 12.1259945,48.4351924 L76.383988,48.4351924 C82.4446573,48.4351924 87.2959863,43.5907398 87.2959863,37.538661 C87.2959863,31.4820492 82.4446573,26.6375967 76.383988,26.6375967 L76.3840695,26.6374804 Z" id="path-5"></path>
    </defs>
    <g id="screens" stroke="none" stroke-width="1" fill="none" fill-rule="evenodd">
        <g id="workinpath-1_slider-over" transform="translate(-645.000000, -135.000000)">
            <g id="Group-9" transform="translate(157.000000, 55.000000)">
                <g id="Group-20" transform="translate(488.000000, 80.000000)">
                    <g id="cloud-copy" transform="translate(0.000000, 5.000000)">
                        <mask id="mask-2" fill="white">
                            <use xlink:href="#path-1"></use>
                        </mask>
                        <use id="Mask" fill="#9BE0FF" xlink:href="#path-1"></use>
                        <g id="cloud-copy-2" mask="url(#mask-2)">
                            <g transform="translate(110.000000, 117.500000) scale(-1, 1) translate(-110.000000, -117.500000) translate(66.000000, 93.000000)">
                                <mask id="mask-4" fill="white">
                                    <use xlink:href="#path-3"></use>
                                </mask>
                                <use id="Mask" stroke="none" fill="#E8F9FF" fill-rule="evenodd" xlink:href="#path-3"></use>
                                <path d="M72.0192702,19.9245471 C72.5057649,18.9574814 72.7467367,17.7452408 72.7467367,16.5329654 C72.7467367,11.207322 68.3819374,6.84870942 63.0487346,6.84870942 C60.866335,6.84870942 59.1704649,7.57514484 57.4699391,8.54217568 C55.0466025,-0.901484845 46.5579408,-7.67999908 36.3734091,-7.67999908 C24.2474146,-7.67999908 14.5494125,2.00425686 14.5494125,14.1130637 C14.5494125,15.0801294 14.5494125,16.0517745 14.7903844,16.77821 C13.821946,16.5375797 13.0945143,16.5375797 12.1259945,16.5375797 C5.33785857,16.5375797 -4.27462459e-13,21.8632231 -4.27462459e-13,28.6463865 C-4.27462459e-13,35.4249007 5.33320279,40.7551933 12.1259945,40.7551933 L76.383988,40.7551933 C82.4446573,40.7551933 87.2959863,35.9107407 87.2959863,29.8586619 C87.2959863,23.8020502 82.4446573,18.9575976 76.383988,18.9575976 C74.9291364,18.9574814 73.4742033,19.1981116 72.0192702,19.9245471 Z" id="-g-Fill-1-Copy" stroke="none" fill="#FEFFFF" fill-rule="evenodd" mask="url(#mask-4)"></path>
                            </g>
                        </g>
                    </g>
                    <g id="cloud-copy" transform="translate(53.000000, 55.500000) scale(-1, 1) translate(-53.000000, -55.500000) translate(9.000000, 31.000000)">
                        <mask id="mask-6" fill="white">
                            <use xlink:href="#path-5"></use>
                        </mask>
                        <use id="Mask" fill="#E8F9FF" xlink:href="#path-5"></use>
                        <path d="M72.0192702,19.9245471 C72.5057649,18.9574814 72.7467367,17.7452408 72.7467367,16.5329654 C72.7467367,11.207322 68.3819374,6.84870942 63.0487346,6.84870942 C60.866335,6.84870942 59.1704649,7.57514484 57.4699391,8.54217568 C55.0466025,-0.901484845 46.5579408,-7.67999908 36.3734091,-7.67999908 C24.2474146,-7.67999908 14.5494125,2.00425686 14.5494125,14.1130637 C14.5494125,15.0801294 14.5494125,16.0517745 14.7903844,16.77821 C13.821946,16.5375797 13.0945143,16.5375797 12.1259945,16.5375797 C5.33785857,16.5375797 -4.27462459e-13,21.8632231 -4.27462459e-13,28.6463865 C-4.27462459e-13,35.4249007 5.33320279,40.7551933 12.1259945,40.7551933 L76.383988,40.7551933 C82.4446573,40.7551933 87.2959863,35.9107407 87.2959863,29.8586619 C87.2959863,23.8020502 82.4446573,18.9575976 76.383988,18.9575976 C74.9291364,18.9574814 73.4742033,19.1981116 72.0192702,19.9245471 Z" id="-g-Fill-1-Copy" fill="#FEFFFF" mask="url(#mask-6)"></path>
                    </g>
                    <g id="Group-17" transform="translate(66.000000, 0.000000)">
                        <path d="M71.8020946,79.9957424 C71.6729266,79.9758704 71.5441906,79.9547024 71.4158866,79.9322384 C71.4724786,79.9413104 71.5303666,79.9503824 71.5878226,79.9594544 C71.6591026,79.9719824 71.7303826,79.9840784 71.8020946,79.9957424 M71.2080946,79.8937904 C70.5354706,79.7659184 69.8783986,79.5957104 69.2386066,79.3736624 C69.2407666,79.3736624 69.2433586,79.3740944 69.2455186,79.3745264 C69.3059986,79.3952624 69.3669106,79.4155664 69.4282546,79.4354384 C69.5051506,79.4583344 69.5777266,79.4851184 69.6585106,79.5080144 C69.9069106,79.5892304 70.1557426,79.6574864 70.4088946,79.7158064 C70.5393586,79.7469104 70.6663666,79.7788784 70.7972626,79.8060944 C70.9324786,79.8406544 71.0698546,79.8674384 71.2080946,79.8937904" id="Fill-10" fill="#C2D2D3"></path>
                        <path d="M69.2455186,79.3745264 C69.2433586,79.3740944 69.2407666,79.3736624 69.2386066,79.3736624 C68.8938706,79.2539984 68.5547506,79.1196464 68.2203826,78.9684464 C68.3236306,79.0138064 68.4264466,79.0591664 68.5292626,79.1015024 C68.6243026,79.1416784 68.7189106,79.1779664 68.8139506,79.2142544 C68.9573746,79.2717104 69.1007986,79.3244144 69.2455186,79.3745264" id="Fill-11" fill="#65443E"></path>
                        <g id="Group-19" transform="translate(0.000000, 0.192808)">
                            <path d="M76.6039346,36.8789828 C76.2023158,46.7182146 70.8543253,57.2006944 63.8614595,66.3889023 C58.1543161,73.8983581 51.3462221,80.543814 45.2419776,85.2781019 L31.7771308,85.2781019 C4.86144189,62.2244223 -13.1106613,33.5314149 12.0521806,9.87077538 C16.115804,6.05319146 20.7360016,3.41928751 25.6019591,1.83816754 C26.1693756,1.65283954 26.7404062,1.48133555 27.3173097,1.32754355 C27.4736203,1.28261555 27.6339967,1.24157555 27.7898556,1.20096755 C27.8747873,1.17850355 27.9642367,1.15603955 28.0545897,1.13314355 C28.2813755,1.07914355 28.5077097,1.02471155 28.7344955,0.970711556 C28.9283026,0.925783557 29.1270791,0.879991558 29.3204343,0.839815559 L29.3913614,0.825991559 C29.6651308,0.76723956 29.9443214,0.713239561 30.2180908,0.663559562 C31.8525755,0.352087568 33.5060343,0.157255572 35.1599448,0.0626475741 C37.309893,-0.0596084235 39.4639071,-0.000856424654 41.5998506,0.220759571 C43.2718317,0.392263568 44.9298082,0.663559562 46.5651964,1.03853555 L46.5701658,1.03853555 C48.4309846,1.45843955 50.2601798,2.00967154 52.0455539,2.67408752 L52.0591068,2.67840752 C57.0018644,4.52607149 61.570109,7.27747943 65.3924901,10.7831594 C67.8776477,13.0511593 70.0411488,15.6401353 71.7939959,18.5038632 C75.0254687,23.7859271 76.8451769,29.998087 76.6039346,36.8789828" id="Fill-38" fill="#FEC1D8"></path>
                            <path d="M48.7616763,56.3012705 C47.1746269,66.2675103 44.0045941,75.7317661 39.4029189,84.5195099 L37.0876248,84.5195099 C34.2338272,78.605862 31.5363402,72.5207101 29.6326038,66.1003263 C26.1454321,53.4271745 25.3516815,39.9098948 27.2554179,26.898487 C28.7534697,17.4519432 31.0168108,8.45683941 35.1599448,0.0626475741 C37.309893,-0.0596084235 39.4639071,-0.000856424654 41.5998506,0.220759571 C44.1744576,5.65099946 46.5746834,11.2307114 48.3126222,17.0951112 C51.8047633,29.767831 50.6658645,43.2894307 48.7616763,56.3012705" id="Fill-43" fill="#FDFBFA"></path>
                            <path d="M34.8147966,84.7726619 L33.7662507,85.1065979 C27.6475497,79.256022 22.1441521,72.9220381 16.4600487,66.8861342 C6.46294774,56.2740545 -8.6648449,22.3179911 25.6019591,1.83816754 C27.1185332,1.34568755 28.6595026,0.952567556 30.2180908,0.663559562 C21.2510133,7.35437543 15.9454887,17.6459112 14.3625052,27.933127 C12.2649617,41.8072387 16.1103828,56.0209025 23.277178,68.2231742 C26.5994556,73.9069981 30.0952108,80.092374 34.8147966,84.7726619" id="Fill-44" fill="#FDFBFA"></path>
                            <path d="M59.8362361,66.8861342 C54.147615,72.9220381 48.6437657,79.256022 42.5255164,85.1065979 L41.4769706,84.7726619 C46.1970081,80.092374 49.6927634,73.9069981 53.0191068,68.2231742 C60.1863537,56.0209025 64.0317748,41.8072387 61.9337796,27.933127 C60.379709,17.8316712 55.2390785,7.73367142 46.5701658,1.03853555 C48.4309846,1.45843955 50.2601798,2.00967154 52.0455539,2.67408752 L52.0591068,2.67840752 C84.545958,23.2390151 69.6960006,56.4183425 59.8362361,66.8861342" id="Fill-45" fill="#FDFBFA"></path>
                            <path d="M45.2419776,85.2781019 L31.7771308,85.2781019 C31.1690555,84.7575419 30.5664014,84.2339579 29.9678132,83.7077819 C12.9850747,68.7709502 -0.00587095058,51.6157985 2.31831978e-13,35.0533509 C0.00316434336,26.3602151 3.58656192,17.8308072 12.0521806,9.87077538 C16.115804,6.05319146 20.7360016,3.41928751 25.6019591,1.83816754 C-8.6648449,22.3179911 6.46294774,56.2740545 16.4600487,66.8861342 C22.1441521,72.9220381 27.6475497,79.256022 33.7662507,85.1065979 L34.8147966,84.7726619 C30.0952108,80.092374 26.5994556,73.9069981 23.277178,68.2231742 C16.6321711,56.9095264 12.842317,43.8652867 13.9979311,30.967063 C13.7734041,41.7173827 19.4213663,51.4421346 27.8214791,58.1791744 C28.311192,60.8472064 28.9147497,63.4919103 29.6326038,66.1003263 C31.5363402,72.5207101 34.2338272,78.605862 37.0876248,84.5195099 L39.4029189,84.5195099 C42.3398411,78.911286 44.6935352,73.0274461 46.4246975,66.9137822 C47.1140905,67.0520222 47.8070975,67.1725502 48.5019116,67.2749342 C50.1323304,67.5224702 51.7455821,67.6481822 53.3421186,67.6680542 C53.2355021,67.8533822 53.1275303,68.0387102 53.0191068,68.2231742 C49.6927634,73.9069981 46.1970081,80.092374 41.4769706,84.7726619 L42.5255164,85.1065979 C48.5226928,79.371798 53.9303162,73.1721661 59.4996714,67.2438302 C60.9670031,67.0291262 62.4207819,66.7396862 63.8614595,66.3889023 C62.4176196,68.2888382 60.9033043,70.1334782 59.3478785,71.9055421 C59.2439726,72.0239101 59.1391632,72.1427101 59.0348055,72.2606461 C54.5302597,77.347014 49.6990881,81.8216699 45.2419776,85.2781019" id="Fill-51" fill="#FEC1D8" opacity="0.300000012"></path>
                            <path d="M39.4029189,84.5195099 L37.0876248,84.5195099 C34.2338272,78.605862 31.5363402,72.5207101 29.6326038,66.1003263 C28.9147497,63.4919103 28.311192,60.8472064 27.8214791,58.1791744 C33.174439,62.4723903 39.6450647,65.5529823 46.4246975,66.9137822 C44.6935352,73.0274461 42.3398411,78.911286 39.4029189,84.5195099" id="Fill-54" fill="#E5E7E6" opacity="0.300000012"></path>
                            <path d="M33.7662507,85.1065979 C27.6475497,79.256022 22.1441521,72.9220381 16.4600487,66.8861342 C6.46294774,56.2740545 -8.6648449,22.3179911 25.6019591,1.83816754 C26.1002556,1.67659954 26.6008109,1.52539955 27.1040767,1.38543155 C27.2030132,1.35778355 27.3024014,1.33013555 27.4017897,1.30335155 C27.6448391,1.23811955 27.8878885,1.17547955 28.1318414,1.11499955 C28.3166132,1.06920755 28.5022885,1.02471155 28.687512,0.981943556 C28.9210744,0.927943557 29.1546367,0.876535558 29.3891026,0.827287559 C19.9309569,6.49383145 14.1921899,22.2363431 14.0132911,30.454279 C14.0065147,30.625783 14.0015452,30.795991 13.9979311,30.967063 C12.842317,43.8652867 16.6321711,56.9095264 23.277178,68.2231742 C26.5994556,73.9069981 30.0952108,80.092374 34.8147966,84.7726619 L33.7662507,85.1065979" id="Fill-55" fill="#E5E7E6" opacity="0.300000012"></path>
                            <path d="M42.5255164,85.1065979 L41.4769706,84.7726619 C46.1970081,80.092374 49.6927634,73.9069981 53.0191068,68.2231742 C53.1275303,68.0387102 53.2355021,67.8533822 53.3421186,67.6680542 C53.493008,67.6697822 53.6438974,67.6706462 53.794335,67.6706462 C55.7193044,67.6706462 57.620782,67.5190142 59.4996714,67.2438302 C53.9303162,73.1721661 48.5226928,79.371798 42.5255164,85.1065979" id="Fill-56" fill="#E5E7E6" opacity="0.300000012"></path>
                            <path d="M56.881695,38.3555588 C54.7299397,38.3555588 52.5705045,37.9771268 50.5506645,37.1869988 C50.6825798,30.388615 50.1129045,23.6286791 48.3126222,17.0951112 C47.9972904,16.0310953 47.660274,14.9761513 47.3042834,13.9298473 C47.3051869,13.9294153 47.3060905,13.9285513 47.306994,13.9276873 C49.551361,12.0847753 52.2199351,10.7023754 54.9784103,10.0427114 C58.6521608,15.4729513 60.9751349,21.7023911 61.9337796,27.933127 C62.4140055,31.110055 62.5829655,34.3042629 62.4713796,37.4889668 C60.6841984,38.0587748 58.7858832,38.3555588 56.881695,38.3555588 M71.5342312,30.128983 C70.4942688,23.1241031 67.3332712,16.0380073 60.901949,9.64483938 C60.9498361,9.64397538 60.9981749,9.64354338 61.046062,9.64354338 C62.6105231,9.64354338 64.067916,10.0647434 65.3924901,10.7831594 C67.8776477,13.0511593 70.0411488,15.6401353 71.7939959,18.5038632 C72.3374688,19.8823752 72.6966217,21.2919912 72.8335064,22.6251431 C73.1122452,25.4668391 72.6067205,27.982807 71.5346829,30.128551 L71.5342312,30.128983" id="Fill-68" fill="#BB7E95" opacity="0.100000001"></path>
                            <path d="M62.4713796,37.4889668 C62.5829655,34.3042629 62.4140055,31.110055 61.9337796,27.933127 C60.9751349,21.7023911 58.6521608,15.4729513 54.9784103,10.0427114 C54.9788621,10.0427114 54.9788621,10.0422794 54.9793138,10.0422794 C56.136735,9.76493538 57.3108714,9.61675938 58.4741655,9.61675938 C59.3767914,9.61675938 60.272189,9.70618338 61.1490643,9.89367138 L61.1449984,9.88891938 L60.2333373,9.67205538 C60.454702,9.65391138 60.6769702,9.64483938 60.8996902,9.64483938 C60.9005937,9.64483938 60.9010455,9.64483938 60.901949,9.64483938 C67.3332712,16.0380073 70.4942688,23.1241031 71.5342312,30.128983 C69.7384665,33.7167429 66.3655913,36.2465349 62.4727349,37.4885348 C62.4722831,37.4885348 62.4722831,37.4885348 62.4713796,37.4889668" id="Fill-70" fill="#FEFDFC"></path>
                        </g>
                        <path d="M30.6072226,97.4399981 L46.1927758,97.4399981 C47.5182592,97.4399981 48.5927758,98.5145146 48.5927758,99.839998 C48.5927758,99.9535633 48.5847151,100.066985 48.5686546,100.179409 L46.8543689,112.179409 C46.6854608,113.361766 45.672851,114.239998 44.4784902,114.239998 L32.3215083,114.239998 C31.1271474,114.239998 30.1145377,113.361766 29.9456296,112.179409 L28.2313439,100.179409 C28.0438922,98.8672477 28.9556498,97.6515709 30.2678114,97.4641193 C30.3802353,97.4480587 30.4936574,97.4399981 30.6072226,97.4399981 Z" id="Rectangle" fill="#75C2E4"></path>
                        <path d="M26.8447195,1.70999997 C27.5704795,1.48708797 28.3018554,1.28966397 29.0366874,1.11815998 C28.9736154,1.13327998 28.9109754,1.14839998 28.8487674,1.16351998 C28.8340794,1.16740798 28.8189594,1.17086398 28.8038394,1.17475198 C28.6267194,1.21751998 28.4491674,1.26201597 28.2724794,1.30780797 C28.2478554,1.31385597 28.2232314,1.31990397 28.1986074,1.32595197 C28.1122074,1.34884797 28.0266714,1.37131197 27.9454554,1.39377597 C27.8231994,1.42703997 27.6979194,1.46073597 27.5743675,1.49615997 C27.4793275,1.52294397 27.3842875,1.55059197 27.2896795,1.57823997 C27.1410715,1.62057597 26.9928955,1.66463997 26.8447195,1.70999997" id="Fill-52" fill="#C7D7D7"></path>
                        <path d="M25.8532795,2.03097596 C26.1824635,1.91865596 26.5129435,1.81151996 26.8447195,1.70999997 C26.9928955,1.66463997 27.1410715,1.62057597 27.2896795,1.57823997 C26.8084315,1.71820797 26.3297755,1.86940796 25.8532795,2.03097596 M27.5743675,1.49615997 C27.6979194,1.46073597 27.8231994,1.42703997 27.9454554,1.39377597 C28.0266714,1.37131197 28.1122074,1.34884797 28.1986074,1.32595197 C28.2232314,1.31990397 28.2478554,1.31385597 28.2724794,1.30780797 C28.0391994,1.36828797 27.8067834,1.43092797 27.5743675,1.49615997 M28.8038394,1.17475198 C28.8189594,1.17086398 28.8340794,1.16740798 28.8487674,1.16351998 C28.9109754,1.14839998 28.9736154,1.13327998 29.0366874,1.11815998 C29.1831354,1.08403198 29.3300154,1.05076798 29.4768954,1.01879998 C29.4760314,1.01923198 29.4751674,1.01966398 29.4747354,1.02009598 C29.2505274,1.06934398 29.0271834,1.12075198 28.8038394,1.17475198" id="Fill-53" fill="#77BAC0"></path>
                        <path d="M31.4956794,87.6425743 L44.8988151,87.6425743 C45.7042848,87.6425743 46.3572471,86.989612 46.3572471,86.1841423 C46.3572471,85.3786726 45.7042848,84.7257103 44.8988151,84.7257103 L31.4956794,84.7257103 C30.6902096,84.7257103 30.0372474,85.3786726 30.0372474,86.1841423 C30.0372474,86.989612 30.6902096,87.6425743 31.4956794,87.6425743 Z" id="Fill-57" fill="#75C2E4"></path>
                        <line x1="34.0799993" y1="87.3599983" x2="31.9199994" y2="98.639998" id="Path-3" stroke="#75C2E4" stroke-width="0.719999986" opacity="0.5"></line>
                        <line x1="42.7199992" y1="86.8799983" x2="44.3999991" y2="98.639998" id="Path-3" stroke="#75C2E4" stroke-width="0.719999986" opacity="0.5"></line>
                        <path d="M49.710479,37.3798073 C49.709615,37.3798073 49.708751,37.3793753 49.707887,37.3789433 C46.8117591,36.1995833 44.2227831,34.0940153 42.4066552,30.9499194 C38.8296952,25.1589595 41.6109112,18.4055036 46.6061271,14.1226557 C46.9465431,15.1689597 47.2688151,16.2239037 47.5703511,17.2879197 C49.291871,23.8214875 49.836623,30.5814234 49.710479,37.3798073" id="Fill-69" fill="#FEFDFC"></path>
                    </g>
                </g>
            </g>
        </g>
    </g>
</svg>