<?xml version="1.0" encoding="UTF-8"?>
<svg width="26px" height="24px" viewBox="0 0 26 24" version="1.1" xmlns="http://www.w3.org/2000/svg" xmlns:xlink="http://www.w3.org/1999/xlink">
    <title>arrow</title>
    <g id="screens" stroke="none" stroke-width="1" fill="none" fill-rule="evenodd">
        <g id="workinpath-2" transform="translate(-911.000000, -659.000000)" fill="#49B8B5">
            <g id="Group-9" transform="translate(161.000000, 56.000000)">
                <g id="Group-21" transform="translate(336.000000, 595.000000)">
                    <g id="arrow" transform="translate(414.000000, 8.000000)">
                        <g transform="translate(0.500000, 0.000000)" id="Group-4">
                            <path d="M17.0098346,0 L7.99016796,0 C6.00365856,-0.00098685943 4.0981425,0.788485974 2.69275904,2.19275786 C1.28848664,3.59801501 0.499016335,5.50348054 0.500000922,7.49016678 L0.500000922,16.5098335 C0.499015071,18.4963429 1.28848664,20.4018589 2.69275904,21.8072424 C4.09801618,23.211514 6.00348172,24.0009843 7.99016796,24 L17.0098346,24 C18.996344,24.0009859 20.9018601,23.211514 22.3072436,21.8072424 C23.7115155,20.4019852 24.5009858,18.4965197 24.5000009,16.5098335 L24.5000009,7.49016678 C24.5009858,5.50365739 23.7115155,3.59814133 22.3072436,2.19275786 C20.9019864,0.788485974 18.9965209,-0.000984333125 17.0098346,0 Z M18.3993024,13.053924 L13.8519534,17.601273 C13.2934126,18.1588285 12.3884649,18.1588285 11.8309094,17.601273 C11.2723687,17.0427322 11.2723687,16.1377845 11.8309094,15.580229 L14.015759,13.4151099 L7.60930222,13.4151099 C6.82180243,13.4151099 6.18431463,12.7766368 6.18431463,11.9901223 C6.18431463,11.2026225 6.82180243,10.5651347 7.60930222,10.5651347 L13.9851907,10.5651347 L11.835861,8.41284915 C11.2773202,7.85430839 11.2773202,6.94936068 11.835861,6.39180517 C12.3934165,5.8332644 13.2983642,5.8332644 13.856905,6.39180517 L18.4042539,10.9391541 C18.683537,11.2194224 18.8335237,11.6042797 18.8157638,12.0000001 L18.8157638,12.0453953 C18.8167515,12.4233558 18.6667522,12.7865121 18.3993276,13.0539468 L18.3993024,13.053924 Z" id="Fill-1"></path>
                        </g>
                    </g>
                </g>
            </g>
        </g>
    </g>
</svg>