<?xml version="1.0" encoding="UTF-8"?>
<svg width="14px" height="6px" viewBox="0 0 14 6" version="1.1" xmlns="http://www.w3.org/2000/svg" xmlns:xlink="http://www.w3.org/1999/xlink">
    <title>noun_read_1226920</title>
    <g id="screens" stroke="none" stroke-width="1" fill="none" fill-rule="evenodd">
        <g id="workinpath-1_slider-over" transform="translate(-182.000000, -160.000000)" fill="#FFFFFF" fill-rule="nonzero">
            <g id="Group-7" transform="translate(189.000000, 343.000000) rotate(-270.000000) translate(-189.000000, -343.000000) translate(-9.000000, 333.000000)">
                <g id="Group-12" transform="translate(8.000000, 0.000000)">
                    <g id="noun_read_1226920" transform="translate(10.000000, 10.000000) rotate(-90.000000) translate(-10.000000, -10.000000) translate(3.000000, 7.000000)">
                        <path d="M13.2428571,2.35714286 C12.9428571,1.04285714 11.7571429,0.0857142857 10.4,0.0857142857 C9.67142857,0.0857142857 8.97142857,0.357142857 8.44285714,0.842857143 C7.98571429,0.714285714 7.5,0.642857143 7,0.642857143 C6.48571429,0.642857143 6,0.714285714 5.55714286,0.842857143 C5.01428571,0.357142857 4.31428571,0.0857142857 3.6,0.0857142857 C2.24285714,0.0857142857 1.05714286,1.02857143 0.757142857,2.35714286 C0.4,2.35714286 0.114285714,2.64285714 0.114285714,3 C0.114285714,3.35714286 0.4,3.64285714 0.757142857,3.64285714 C1.05714286,4.95714286 2.22857143,5.91428571 3.6,5.91428571 C5.2,5.91428571 6.51428571,4.61428571 6.51428571,3 C6.51428571,2.65714286 6.45714286,2.32857143 6.34285714,2 C6.82857143,1.91428571 7.3,1.92857143 7.68571429,2 C7.57142857,2.32857143 7.51428571,2.65714286 7.51428571,3 C7.51428571,4.6 8.81428571,5.91428571 10.4285714,5.91428571 C11.7857143,5.91428571 12.9714286,4.97142857 13.2714286,3.64285714 C13.6285714,3.64285714 13.9142857,3.35714286 13.9142857,3 C13.8714286,2.64285714 13.5857143,2.35714286 13.2428571,2.35714286 Z M10.4,4.62857143 C9.5,4.62857143 8.77142857,3.9 8.77142857,3 C8.77142857,2.1 9.5,1.37142857 10.4,1.37142857 C11.3,1.37142857 12.0285714,2.1 12.0285714,3 C12.0285714,3.9 11.3,4.62857143 10.4,4.62857143 Z M3.6,1.37142857 C4.5,1.37142857 5.22857143,2.1 5.22857143,3 C5.22857143,3.9 4.5,4.62857143 3.6,4.62857143 C2.7,4.62857143 1.97142857,3.9 1.97142857,3 C1.97142857,2.1 2.7,1.37142857 3.6,1.37142857 Z" id="Shape"></path>
                    </g>
                </g>
            </g>
        </g>
    </g>
</svg>