<?xml version="1.0" encoding="UTF-8"?>
<svg width="11px" height="12px" viewBox="0 0 11 12" version="1.1" xmlns="http://www.w3.org/2000/svg" xmlns:xlink="http://www.w3.org/1999/xlink">
    <title>Shape 2</title>
    <g id="screens" stroke="none" stroke-width="1" fill="none" fill-rule="evenodd">
        <g id="workinpath-1_slider-over" transform="translate(-184.000000, -237.000000)" fill="#FFFFFF" fill-rule="nonzero">
            <g id="Shape-2" transform="translate(189.416667, 243.000000) rotate(-270.000000) translate(-189.416667, -243.000000) translate(184.000000, 238.000000)">
                <path d="M9.55426357,7.0078907 L9.55426357,0.467192674 C9.55426357,0.208290116 9.34597287,0 9.08707171,0 L2.70210426,0 C1.67038694,0 0.833333333,0.837053605 0.833333333,1.86877093 L0.833333333,8.09800698 C0.833333333,9.12972442 1.67038694,9.96677791 2.70210426,9.96677791 L9.08707171,9.96677791 C9.34597287,9.96677791 9.55426357,9.75848721 9.55426357,9.49958488 L9.55426357,9.18812326 C9.55426357,9.04212558 9.48613101,8.90975465 9.38101357,8.82410233 C9.29925426,8.52431977 9.29925426,7.66974651 9.38101357,7.36996395 C9.48613101,7.2862593 9.55426357,7.15388721 9.55426357,7.00788953 L9.55426357,7.0078907 Z M8.2578031,8.72093023 L2.70210426,8.72093023 C2.35754961,8.72093023 2.07918101,8.44256163 2.07918101,8.09800698 C2.07918101,7.75539884 2.35949612,7.47508256 2.70210426,7.47508256 L8.2578031,7.47508256 C8.22081822,7.80795814 8.22081822,8.38805581 8.2578031,8.72093023 Z" id="Shape" transform="translate(5.193798, 4.983389) rotate(-90.000000) translate(-5.193798, -4.983389) "></path>
            </g>
        </g>
    </g>
</svg>