<?xml version="1.0" encoding="UTF-8"?>
<svg width="52px" height="53px" viewBox="0 0 52 53" version="1.1" xmlns="http://www.w3.org/2000/svg" xmlns:xlink="http://www.w3.org/1999/xlink">
    <!-- Generator: Sketch 61 (89581) - https://sketch.com -->
    <title>add</title>
    <desc>Created with Sketch.</desc>
    <g id="Page-1" stroke="none" stroke-width="1" fill="none" fill-rule="evenodd">
        <g id="onersen-home" transform="translate(-1191.000000, -660.000000)" stroke="#222D54" stroke-width="2">
            <g id="fikirkartı" transform="translate(902.000000, 638.000000)">
                <g id="refer-friend-card">
                    <g id="illustration">
                        <g id="add-project">
                            <g id="add" transform="translate(288.718410, 21.225627)">
                                <ellipse id="Oval" cx="26.2815897" cy="27.2743726" rx="25" ry="25.5"></ellipse>
                                <path d="M22.9823196,24.4588386 L22.9823196,20.5736427 C22.9823196,19.0276485 24.2355955,17.7743726 25.7815897,17.7743726 C27.3275838,17.7743726 28.5808597,19.0276485 28.5808597,20.5736427 L28.5808597,24.4588386 L32.4866868,24.4588386 C34.030269,24.4588386 35.2815897,25.7101593 35.2815897,27.2537416 C35.2815897,28.7973238 34.030269,30.0486445 32.4866868,30.0486445 L28.5808597,30.0486445 L28.5808597,33.9751026 C28.5808597,35.5210967 27.3275838,36.7743726 25.7815897,36.7743726 C24.2355955,36.7743726 22.9823196,35.5210967 22.9823196,33.9751026 L22.9823196,30.0486445 L19.0764926,30.0486445 C17.5329103,30.0486445 16.2815897,28.7973238 16.2815897,27.2537416 C16.2815897,25.7101593 17.5329103,24.4588386 19.0764926,24.4588386 L22.9823196,24.4588386 Z" id="+-copy-2" fill-rule="nonzero" transform="translate(25.781590, 27.274373) rotate(-360.000000) translate(-25.781590, -27.274373) "></path>
                            </g>
                        </g>
                    </g>
                </g>
            </g>
        </g>
    </g>
</svg>